<svg width="65" height="65" viewBox="0 0 65 65" fill="none" xmlns="http://www.w3.org/2000/svg">
<path d="M24.375 54.8437H12.1875C11.6488 54.8437 11.1321 54.6297 10.7512 54.2488C10.3703 53.8678 10.1563 53.3512 10.1563 52.8124V41.4663C10.1562 41.1996 10.2088 40.9354 10.3109 40.689C10.4129 40.4425 10.5626 40.2186 10.7512 40.03L41.2199 9.56125C41.6009 9.18031 42.1175 8.96631 42.6562 8.96631C43.195 8.96631 43.7116 9.18031 44.0926 9.56125L55.4387 20.9074C55.8196 21.2883 56.0336 21.805 56.0336 22.3437C56.0336 22.8824 55.8196 23.3991 55.4387 23.78L24.375 54.8437Z" stroke="#FDB913" stroke-width="2" stroke-linecap="round" stroke-linejoin="round"/>
<path d="M34.5312 16.25L48.75 30.4688" stroke="#FDB913" stroke-width="2" stroke-linecap="round" stroke-linejoin="round"/>
<path d="M54.8437 54.8437H24.3749L10.2854 40.7542" stroke="#FDB913" stroke-width="2" stroke-linecap="round" stroke-linejoin="round"/>
</svg>
